<svg id="visual" viewBox="0 0 960 540" width="960" height="540" xmlns="http://www.w3.org/2000/svg" xmlns:xlink="http://www.w3.org/1999/xlink" version="1.1"><rect x="0" y="0" width="960" height="540" fill="#001220"></rect><path d="M632 540L639.7 528.8C647.3 517.7 662.7 495.3 676.2 472.8C689.7 450.3 701.3 427.7 706.3 405.2C711.3 382.7 709.7 360.3 709.2 337.8C708.7 315.3 709.3 292.7 701.2 270.2C693 247.7 676 225.3 674.7 202.8C673.3 180.3 687.7 157.7 695 135.2C702.3 112.7 702.7 90.3 694 67.8C685.3 45.3 667.7 22.7 658.8 11.3L650 0L960 0L960 11.3C960 22.7 960 45.3 960 67.8C960 90.3 960 112.7 960 135.2C960 157.7 960 180.3 960 202.8C960 225.3 960 247.7 960 270.2C960 292.7 960 315.3 960 337.8C960 360.3 960 382.7 960 405.2C960 427.7 960 450.3 960 472.8C960 495.3 960 517.7 960 528.8L960 540Z" fill="#b9dfe4"></path><path d="M773 540L768.3 528.8C763.7 517.7 754.3 495.3 752.5 472.8C750.7 450.3 756.3 427.7 761.3 405.2C766.3 382.7 770.7 360.3 768.8 337.8C767 315.3 759 292.7 756.2 270.2C753.3 247.7 755.7 225.3 760.7 202.8C765.7 180.3 773.3 157.7 777 135.2C780.7 112.7 780.3 90.3 770.3 67.8C760.3 45.3 740.7 22.7 730.8 11.3L721 0L960 0L960 11.3C960 22.7 960 45.3 960 67.8C960 90.3 960 112.7 960 135.2C960 157.7 960 180.3 960 202.8C960 225.3 960 247.7 960 270.2C960 292.7 960 315.3 960 337.8C960 360.3 960 382.7 960 405.2C960 427.7 960 450.3 960 472.8C960 495.3 960 517.7 960 528.8L960 540Z" fill="#8fc3c8"></path><path d="M838 540L833.2 528.8C828.3 517.7 818.7 495.3 812.7 472.8C806.7 450.3 804.3 427.7 812.2 405.2C820 382.7 838 360.3 835.5 337.8C833 315.3 810 292.7 805.3 270.2C800.7 247.7 814.3 225.3 813.5 202.8C812.7 180.3 797.3 157.7 791 135.2C784.7 112.7 787.3 90.3 798 67.8C808.7 45.3 827.3 22.7 836.7 11.3L846 0L960 0L960 11.3C960 22.7 960 45.3 960 67.8C960 90.3 960 112.7 960 135.2C960 157.7 960 180.3 960 202.8C960 225.3 960 247.7 960 270.2C960 292.7 960 315.3 960 337.8C960 360.3 960 382.7 960 405.2C960 427.7 960 450.3 960 472.8C960 495.3 960 517.7 960 528.8L960 540Z" fill="#63a7ac"></path><path d="M883 540L880.5 528.8C878 517.7 873 495.3 875.8 472.8C878.7 450.3 889.3 427.7 891.7 405.2C894 382.7 888 360.3 882.2 337.8C876.3 315.3 870.7 292.7 868.8 270.2C867 247.7 869 225.3 872.3 202.8C875.7 180.3 880.3 157.7 884.7 135.2C889 112.7 893 90.3 888.3 67.8C883.7 45.3 870.3 22.7 863.7 11.3L857 0L960 0L960 11.3C960 22.7 960 45.3 960 67.8C960 90.3 960 112.7 960 135.2C960 157.7 960 180.3 960 202.8C960 225.3 960 247.7 960 270.2C960 292.7 960 315.3 960 337.8C960 360.3 960 382.7 960 405.2C960 427.7 960 450.3 960 472.8C960 495.3 960 517.7 960 528.8L960 540Z" fill="#308c91"></path></svg>