<?xml version="1.0" standalone="no"?>
<!DOCTYPE svg PUBLIC "-//W3C//DTD SVG 20010904//EN"
 "http://www.w3.org/TR/2001/REC-SVG-20010904/DTD/svg10.dtd">
<svg version="1.0" xmlns="http://www.w3.org/2000/svg"
 width="700.000000pt" height="700.000000pt" viewBox="0 0 700.000000 700.000000"
 preserveAspectRatio="xMidYMid meet">
<metadata>
Created by potrace 1.14, written by Peter Selinger 2001-2017
</metadata>
<g transform="translate(0.000000,700.000000) scale(0.100000,-0.100000)"
fill="#000000" stroke="none">
<path d="M3295 6172 c-109 -174 -210 -343 -223 -374 -38 -95 -48 -198 -29
-293 27 -130 60 -182 265 -423 103 -122 189 -221 192 -221 10 0 356 413 388
463 89 139 102 335 33 491 -21 47 -412 674 -421 674 -3 0 -95 -142 -205 -317z"/>
<path d="M550 5276 c0 -26 116 -409 136 -447 67 -133 206 -219 354 -219 57 0
339 36 348 44 2 3 -6 78 -17 168 -25 187 -44 241 -115 316 -55 58 -122 96
-196 111 -30 5 -143 13 -250 16 -107 3 -210 8 -227 11 -18 3 -33 3 -33 0z"/>
<path d="M6350 5273 c-454 -19 -487 -25 -585 -114 -85 -78 -110 -140 -136
-337 -11 -90 -19 -165 -17 -167 8 -8 294 -45 348 -45 148 0 287 86 355 219 19
39 135 419 135 445 0 3 -6 5 -12 4 -7 -1 -47 -3 -88 -5z"/>
<path d="M2360 5123 c-480 -49 -957 -388 -1183 -839 -146 -291 -206 -662 -166
-1020 6 -53 9 -98 6 -100 -2 -2 -45 25 -95 61 -114 82 -145 95 -224 95 -82 -1
-116 -17 -267 -128 l-123 -90 122 -82 c144 -97 190 -115 269 -107 76 6 118 30
230 127 51 44 95 79 97 77 3 -2 16 -50 29 -106 103 -424 353 -778 745 -1056
131 -93 242 -156 476 -273 469 -235 744 -419 960 -644 138 -144 231 -299 250
-417 7 -46 24 -65 24 -28 0 13 9 53 21 88 43 134 129 258 281 405 215 208 484
383 926 602 381 189 618 356 809 572 198 223 330 473 398 751 13 56 26 104 28
106 3 2 47 -33 98 -78 52 -45 117 -92 144 -105 55 -26 130 -31 186 -13 34 12
289 170 288 179 0 10 -249 185 -286 202 -52 24 -156 23 -208 -1 -22 -10 -78
-46 -123 -80 -46 -34 -86 -60 -89 -57 -3 2 0 44 6 93 24 197 9 481 -38 674
-120 505 -474 913 -954 1102 -160 62 -298 90 -457 90 -297 2 -549 -99 -811
-325 -70 -60 -96 -107 -85 -152 7 -28 102 -176 124 -193 9 -7 22 -13 29 -13 7
0 50 38 97 85 186 187 390 275 634 275 370 0 745 -200 946 -504 92 -139 146
-271 180 -436 83 -412 -59 -909 -366 -1282 -194 -236 -438 -406 -765 -534
-484 -188 -870 -487 -1018 -788 -3 -8 -7 -8 -10 0 -29 58 -91 149 -149 216
-201 233 -494 426 -871 573 -66 26 -151 63 -190 82 -499 249 -843 704 -942
1248 -25 134 -22 372 5 497 105 483 454 823 940 914 107 20 316 15 407 -10
150 -41 338 -160 435 -275 72 -85 88 -82 165 37 61 95 70 119 61 159 -15 59
-224 227 -384 307 -189 95 -417 139 -612 119z"/>
<path d="M4475 4320 c-105 -14 -207 -57 -318 -132 -74 -50 -190 -161 -160
-153 52 14 174 21 241 14 127 -14 225 -71 292 -171 77 -116 114 -294 90 -438
-46 -278 -222 -533 -640 -932 l-104 -100 74 37 c195 98 470 274 640 409 147
117 158 121 330 121 166 0 209 -11 310 -76 l61 -39 -18 32 c-56 101 -192 195
-319 220 -32 7 -60 13 -62 14 -2 1 26 41 62 89 127 166 196 341 196 499 0 366
-321 654 -675 606z"/>
<path d="M2295 4305 c-156 -43 -299 -158 -372 -300 -128 -249 -89 -509 117
-784 39 -51 69 -94 68 -95 -2 -1 -30 -7 -62 -14 -127 -25 -263 -119 -319 -220
l-18 -32 61 39 c99 64 144 76 305 76 131 0 144 -2 195 -26 30 -15 94 -58 143
-97 161 -129 440 -308 629 -403 l83 -41 -105 99 c-240 229 -370 376 -476 538
-68 105 -98 166 -136 278 -29 83 -32 104 -32 212 0 104 4 131 27 202 31 92 89
184 142 226 20 16 61 40 93 55 52 25 67 27 187 27 72 0 146 -3 165 -7 l35 -8
-62 60 c-111 105 -243 182 -368 215 -73 18 -231 18 -300 0z"/>
</g>
</svg>
